<svg width="58" height="56" viewBox="0 0 58 56" fill="none" xmlns="http://www.w3.org/2000/svg">
<path d="M25 8.586C11.193 8.586 0 18.621 0 31C0 35.562 1.524 39.803 4.135 43.343C3.792 47.433 2.805 53.194 0 56C0 56 8.47 54.809 14.273 51.349C14.279 51.345 14.282 51.339 14.287 51.336C16.081 50.23 18.096 48.939 18.589 48.553C18.89 48.136 19.468 48.01 19.917 48.282C20.215 48.463 20.404 48.794 20.405 49.142C20.408 49.724 20.397 49.886 16.754 52.16C19.336 52.97 22.109 53.414 24.999 53.414C38.806 53.414 49.999 43.379 49.999 31C49.999 18.621 38.807 8.586 25 8.586Z" fill="#3CC6B7"/>
<path d="M58.0001 22.414C58.0001 10.035 46.8071 0 33.0001 0C23.0301 0 14.4251 5.234 10.4111 12.804C14.5181 10.153 19.5531 8.586 25.0001 8.586C38.8071 8.586 50.0001 18.621 50.0001 31C50.0001 35.735 48.3581 40.124 45.5631 43.743C51.1621 46.448 58.0001 47.414 58.0001 47.414C55.1951 44.609 54.2081 38.848 53.8651 34.757C56.4761 31.217 58.0001 26.976 58.0001 22.414Z" fill="#226BAC"/>
<path d="M15.7407 35H9.25926C9.11615 35 9 33.4355 9 31.5C9 29.5645 9.11615 28 9.25926 28H15.7407C15.8839 28 16 29.5645 16 31.5C16 33.4355 15.8839 35 15.7407 35Z" fill="white"/>
<path d="M27.7407 35H21.2593C21.1161 35 21 33.4355 21 31.5C21 29.5645 21.1161 28 21.2593 28H27.7407C27.8839 28 28 29.5645 28 31.5C28 33.4355 27.8839 35 27.7407 35Z" fill="white"/>
<path d="M39.7407 35H33.2593C33.1161 35 33 33.4355 33 31.5C33 29.5645 33.1161 28 33.2593 28H39.7407C39.8839 28 40 29.5645 40 31.5C40 33.4355 39.8839 35 39.7407 35Z" fill="white"/>
</svg>
