<svg width="335" height="311" viewBox="0 0 335 311" fill="none" xmlns="http://www.w3.org/2000/svg">
<path d="M332.797 1.6989C331.308 0.392897 329.189 0.0898965 327.393 0.922897L2.89281 151.695C1.14581 152.507 0.0208104 154.25 -0.000189642 156.176C-0.0211896 158.102 1.06681 159.869 2.79681 160.718L94.6298 205.786C96.3138 206.613 98.3218 206.426 99.8258 205.302L189.113 138.568L119.019 210.668C118.019 211.697 117.509 213.106 117.619 214.536L124.598 305.425C124.753 307.439 126.103 309.161 128.022 309.792C128.535 309.96 129.062 310.042 129.583 310.042C131.012 310.042 132.402 309.429 133.369 308.309L182.111 251.827L242.366 280.617C243.674 281.242 245.188 281.268 246.517 280.69C247.846 280.111 248.858 278.985 249.292 277.603L334.27 6.9559C334.864 5.0659 334.285 3.0049 332.797 1.6989Z" fill="white"/>
</svg>
