<svg width="512" height="512" viewBox="0 0 512 512" fill="none" xmlns="http://www.w3.org/2000/svg">
<path d="M437.02 74.98C388.667 26.629 324.38 0 256 0C187.62 0 123.333 26.629 74.98 74.98C26.629 123.333 0 187.62 0 256C0 324.38 26.629 388.668 74.98 437.02C123.333 485.371 187.62 512 256 512C324.38 512 388.667 485.371 437.02 437.02C485.371 388.668 512 324.38 512 256C512 187.62 485.371 123.333 437.02 74.98ZM256 472C136.897 472 40 375.103 40 256C40 136.897 136.897 40 256 40C375.103 40 472 136.897 472 256C472 375.103 375.103 472 256 472Z" fill="black"/>
<path d="M387.932 291.939C377.442 288.525 365.996 294.183 360.683 303.851C356.718 311.068 351.224 319.672 343.973 328.169C321.419 354.599 292.628 368 258.4 368C223.925 368 194.205 354.439 170.067 327.697C162.168 318.946 156.111 310.087 151.731 302.725C146.097 293.256 134.42 288.111 124.096 291.965V291.965C113.697 295.847 108.555 307.396 113.896 317.126C119.415 327.179 127.729 340.247 139.275 353.269C171.022 389.074 212.215 408 258.4 408C304.812 408 345.304 388.924 375.499 352.834C386.409 339.794 394.101 326.705 399.155 316.6C404.12 306.676 398.485 295.372 387.932 291.939V291.939Z" fill="black"/>
<path d="M168 212.12C185.673 212.12 200 197.793 200 180.12C200 162.447 185.673 148.12 168 148.12C150.327 148.12 136 162.447 136 180.12C136 197.793 150.327 212.12 168 212.12Z" fill="black"/>
<path d="M344 212.12C361.673 212.12 376 197.793 376 180.12C376 162.447 361.673 148.12 344 148.12C326.327 148.12 312 162.447 312 180.12C312 197.793 326.327 212.12 344 212.12Z" fill="black"/>
</svg>
